<svg width="305" height="269" viewBox="0 0 305 269" fill="none" xmlns="http://www.w3.org/2000/svg">
<path d="M12.427 9.31055C12.427 71.9215 13.5018 134.739 8.84889 197.222C7.61634 213.773 7.71064 230.399 6.42497 246.97C5.93306 253.31 5.1553 259.538 5.1553 265.899" stroke="black" stroke-width="2" stroke-linecap="round"/>
<path d="M1 266.938C44.3832 266.938 88.3618 269.067 131.66 266.361C146.914 265.407 162.144 264.167 177.369 262.783C188.151 261.802 198.239 259.666 209.11 259.666C233.063 259.666 259.59 257.217 282.52 264.86" stroke="black" stroke-width="2" stroke-linecap="round"/>
<path d="M282.52 264.86C282.52 222.544 282.159 180.209 282.52 137.893C282.654 122.2 284.598 106.642 284.598 90.9157C284.598 80.7006 284.598 70.4855 284.598 60.2705C284.598 40.5629 286.676 20.222 286.676 1" stroke="black" stroke-width="2" stroke-linecap="round"/>
<path d="M9.31055 5.15527C68.9658 5.15527 128.634 5.97014 187.988 12.6579C215.455 15.7528 244.475 13.8618 272.017 12.4847C279.607 12.1052 287.436 11.5334 294.986 11.3882C297.597 11.338 308.637 11.5575 300.18 10.3494" stroke="black" stroke-width="2" stroke-linecap="round"/>
</svg>
