<svg width="279" height="283" viewBox="0 0 279 283" fill="none" xmlns="http://www.w3.org/2000/svg">
<path d="M15.2504 15.1704C15.2504 42.0022 16.4741 69.1468 14.9865 95.9228C13.6506 119.969 12.4513 144.21 9.31274 168.099C7.60848 181.07 6.01467 194.193 5.75013 207.287C5.42051 223.603 4.5626 239.877 4.5626 256.24C4.5626 261.256 6.35282 270.774 3.37506 275.241" stroke="black" stroke-width="2" stroke-linecap="round"/>
<path d="M1 274.053C65.5591 274.053 130.036 272.865 194.568 272.865C210.829 272.865 227.183 274.053 243.521 274.053C248.841 274.053 257.845 275.807 262.258 272.865" stroke="black" stroke-width="2" stroke-linecap="round"/>
<path d="M8.12521 9.23249C66.8848 9.23249 126.525 11.7402 185.068 6.59352C205.271 4.81741 227.04 6.64789 246.82 2.37117C252.346 1.17629 275.058 -0.793352 277.696 4.48235" stroke="black" stroke-width="2" stroke-linecap="round"/>
<path d="M264.633 2.10742C264.633 34.0829 264.633 66.0584 264.633 98.0339C264.633 131.858 260.103 165.363 259.883 199.106C259.704 226.461 259.883 253.822 259.883 281.178" stroke="black" stroke-width="2" stroke-linecap="round"/>
</svg>
