<svg width="270" height="289" viewBox="0 0 270 289" fill="none" xmlns="http://www.w3.org/2000/svg">
<path d="M1.8345 2.28394C1.8345 77.7045 2.87173 153.121 7.027 228.436C7.87143 243.741 7.67606 259.05 7.67606 274.38C7.67606 276.135 7.46406 288.414 6.00704 287.686" stroke="black" stroke-width="2" stroke-linecap="round"/>
<path d="M3.50348 1.44931C30.7641 1.44931 58.0247 1.44931 85.2852 1.44931C109.578 1.44931 134.525 -0.172893 158.722 2.74743C172.538 4.41493 186.371 6.13912 200.262 7.10542C208.231 7.65982 216.854 7.04234 224.648 8.77444C229.03 9.74829 234.301 8.95988 238.788 8.95988C241.56 8.95988 244.123 9.79439 246.762 9.79439C251.909 9.79439 257.055 9.79439 262.201 9.79439" stroke="black" stroke-width="2" stroke-linecap="round"/>
<path d="M256.359 8.95972C256.359 40.3803 255.886 71.8429 256.406 103.259C256.994 138.854 260.532 174.251 260.532 209.891C260.532 235.526 261.366 261.18 261.366 286.851" stroke="black" stroke-width="2" stroke-linecap="round"/>
<path d="M268.877 275.168C247.959 275.168 227.016 274.849 206.103 275.353C177.588 276.04 148.902 274.905 120.427 276.42C94.8293 277.781 69.3725 278.506 43.7453 278.506C33.8503 278.506 21.0524 280.603 11.5241 277.671C8.08314 276.613 4.66248 276.837 1 276.837" stroke="black" stroke-width="2" stroke-linecap="round"/>
</svg>
