<svg width="702" height="550" viewBox="0 0 702 550" fill="none" xmlns="http://www.w3.org/2000/svg">
<rect x="1.80118" y="47.9395" width="698" height="500" rx="8.5" fill="white" stroke="black" stroke-width="3"/>
<rect x="55.8012" y="99.9395" width="397" height="397" rx="8.5" fill="black" stroke="black" stroke-width="3"/>
<rect x="539.801" y="24.9395" width="113" height="23" fill="white" stroke="black" stroke-width="3"/>
<rect x="567.801" y="1.93945" width="57" height="23" fill="white" stroke="black" stroke-width="3"/>
<circle cx="575.301" cy="298.439" r="63.5" stroke="black" stroke-width="3"/>
<circle cx="515.301" cy="468.439" r="33.5" stroke="black" stroke-width="3"/>
<path d="M542.414 285.439C540.269 285.708 536.42 293.807 534.86 295.599C533.464 297.201 530.843 299.087 533.334 300.846C536.912 303.371 544.932 306.39 546.433 310.893" stroke="black" stroke-width="3" stroke-linecap="round"/>
<path d="M610.32 310.894C612.466 310.625 616.314 302.526 617.874 300.734C619.27 299.132 621.892 297.246 619.4 295.487C615.822 292.962 607.802 289.943 606.301 285.44" stroke="black" stroke-width="3" stroke-linecap="round"/>
<path d="M561.005 328.854C561.178 330.241 565.406 332.251 566.438 333.245C568.623 335.349 571.532 338.707 574.736 339.125C577.835 339.529 580.627 333.357 582.774 331.608C584.737 330.009 586.921 327.953 589.138 326.844" stroke="black" stroke-width="3" stroke-linecap="round"/>
<path d="M589.434 268.729C589.261 267.342 585.033 265.332 584.001 264.338C581.816 262.234 578.907 258.876 575.703 258.458C572.603 258.054 569.812 264.226 567.665 265.975C565.702 267.574 563.518 269.63 561.301 270.739" stroke="black" stroke-width="3" stroke-linecap="round"/>
<path d="M509.301 480.002V460.112C513.488 462.988 518.458 463.481 523.344 465.16C528.064 466.781 528.654 468.719 524.614 471.216C520.603 473.696 517.1 476.557 513.365 479.479C512.01 480.54 509.301 483.003 509.301 480.002Z" fill="#D9D9D9"/>
<path d="M509.301 459.439C509.301 466.294 509.301 473.148 509.301 480.002C509.301 483.003 512.01 480.54 513.365 479.479C517.1 476.557 520.603 473.696 524.614 471.216C528.654 468.719 528.064 466.781 523.344 465.16C518.458 463.481 513.488 462.988 509.301 460.112" stroke="black" stroke-width="3" stroke-linecap="round"/>
</svg>
