<svg width="154" height="130" viewBox="0 0 154 130" fill="none" xmlns="http://www.w3.org/2000/svg">
<path d="M88.3528 1.3501C88.3528 8.2835 82.9605 15.4185 78.6059 20.3461C68.3648 31.9347 51.0681 34.1482 36.5492 35.2775C26.9914 36.0209 16.3605 36.6581 6.8939 34.7798C5.47768 34.4988 2.63543 34.0053 1.50201 32.8719C0.0240611 31.3939 5.31886 34.6185 7.0598 35.7752C25.5307 48.047 32.146 68.6073 32.3602 90.0258C32.4021 94.2151 32.7674 98.6753 32.2772 102.842C32.0009 105.19 29.4568 107.69 29.4568 109.851C29.4568 111.016 30.9731 108.078 31.821 107.28C34.3605 104.89 37.3562 102.956 40.2406 101.017C47.0752 96.4232 53.6325 94.4965 61.7667 93.5927C73.5804 92.2801 79.3079 96.3659 84.7858 106.45C88.2041 112.743 89.8459 120.206 89.8459 127.354C89.8459 131.609 90.1566 118.834 90.7584 114.621C92.4885 102.51 96.8568 91.1693 105.151 82.0624C113.626 72.7558 128.331 66.3015 140.986 66.3015C143.357 66.3015 150.209 65.1137 151.977 66.8822C152.386 67.2912 149.379 66.9857 148.825 66.7163C145.666 65.1794 143.351 61.9082 142.272 58.6699C137.014 42.8982 140.706 25.9193 148.493 11.7606C150.063 8.90609 151.041 7.7023 146.751 8.56692C136.002 10.7334 125.816 12.632 114.814 12.5486C106.85 12.4883 92.3265 12.0191 89.8459 2.09667" stroke="black" stroke-width="2" stroke-linecap="round"/>
</svg>
