<svg width="219" height="205" viewBox="0 0 219 205" fill="none" xmlns="http://www.w3.org/2000/svg">
<path d="M43.2954 71.3799C43.2954 76.6376 43.2954 81.8952 43.2954 87.1529C43.2954 97.7757 40.7924 106.039 35.3918 115.297C28.5578 127.012 18.0817 133.35 4.94552 136.19C3.78732 136.44 2.54934 136.327 1.3717 136.327C-1.25163 136.327 6.62094 136.299 9.24099 136.43C30.3134 137.484 48.5034 147.384 62.6078 162.925C70.4554 171.572 78.1601 183.298 78.5182 195.295C78.5975 197.951 78.5526 200.612 78.5526 203.268C78.5526 204.817 79.8692 200.459 80.4082 199.007C84.4327 188.163 89.4119 177.642 97.1434 168.87C106.268 158.516 121.158 157.426 134.084 157.358C143.745 157.307 153.654 156.961 161.438 163.578C166.542 167.916 172.02 173.59 174.427 179.969C176.99 186.76 173.744 172.938 173.568 171.688C171.955 160.213 176.958 149.414 182.468 139.695C191.232 124.237 200.916 109.66 210.922 95.0222C212.333 92.9578 213.694 90.7948 215.251 88.8367C215.95 87.9591 217.487 86.9885 217.932 85.9501C218.141 85.4628 213.887 85.6276 213.602 85.6409C209.181 85.8465 204.847 86.2603 200.406 86.2251C170.135 85.9848 156.65 47.913 156.49 22.3773C156.452 16.4295 158.43 6.76934 155.252 1.20921C154.304 -0.44966 149.023 8.28213 148.586 8.90669C137.95 24.1001 126.314 36.2921 107.487 40.3151C95.7075 42.8321 85.1335 39.6463 74.8757 33.9578C67.2821 29.7469 59.115 25.4692 53.3296 18.8034C50.9728 16.088 48.148 13.8406 45.804 11.106C44.9955 10.1627 46.0449 12.3173 46.0789 12.4118C47.1816 15.475 47.6692 18.8415 48.2438 22.0336C49.6393 29.7865 50.0994 37.2037 50.0994 45.0573C50.0994 52.1576 48.5598 56.8441 45.9071 63.3388C43.8108 68.4711 37.9203 76.3283 31.543 76.3283" stroke="black" stroke-width="2" stroke-linecap="round"/>
</svg>
