<svg width="669" height="481" fill="none" xmlns="http://www.w3.org/2000/svg"><path d="M277.613 421.941c56.53-35.779-63.422 3.67-46.877 29.357m0 0c16.545 25.687-56.53-5.046-66.641-98.162-10.111-93.116-85.7858-108.401 142.013-197.7 227.799-89.2987 547.942-67.6896 206.815 72.475-341.128 140.164-282.187 223.387-282.187 223.387Z" stroke="#000"/><path d="M312.108 130.436c-227.7988 89.299-152.124 104.584-142.013 197.7 10.111 93.116 83.186 123.849 66.641 98.162 0 0-58.941-83.223 282.187-223.387C860.05 62.7464 539.907 41.1373 312.108 130.436Z" fill="#8DB8E7"/><path d="M283.613 396.941c56.53-35.779-63.422 3.67-46.877 29.357m0 0c16.545 25.687-56.53-5.046-66.641-98.162-10.111-93.116-85.7858-108.401 142.013-197.7 227.799-89.2987 547.942-67.6896 206.815 72.475-341.128 140.164-282.187 223.387-282.187 223.387Z" stroke="#000"/><g filter="url(#a)"><circle cx="449.5" cy="91.5" r="91" stroke="#000" shape-rendering="crispEdges"/></g><path d="M2.2837 275.756c1.1732 11.732 20.3121 21.867 28.745 26.736 20.6212 11.907 44.7695 17.057 68.3854 17.695 26.4629.716 66.3629-.035 70.8579-33.922 2.164-16.312 1.728-36.886-16.381-43.581-23.2-8.577-43.969 1.085-59.5768 18.7-21.5156 24.281-35.9382 75.952-4.4045 99.603 9.8301 7.372 20.4003 1.591 28.8223-4.946 21.287-16.521 40.269-36.576 65.449-47.367 31.406-13.46 71.019-12.643 89.712 19.472 8.552 14.692 17.615 43.49-3.477 51.927-10.868 4.347-27.108-8.796-31.372-18.391-5.713-12.855-2.654-33.211 14.372-34.386 14.389-.992 37.73-3.829 48.991 7.187 14.608 14.29 12.073 47.914 6.413 65.14-6.997 21.295-22.795 43.55-22.795 66.608 0 18.557 28.17 12.028 39.872 9.504 27.259-5.879 49.009-23.309 61.586-47.676 2.472-4.79 3.251-10.69 6.336-15.146.287-.415 2.385-2.357.309-.541-5.551 4.857-12.024 8.544-18.004 12.827-13.662 9.785-25.934 21.386-38.404 32.609-3.199 2.879-3.774 1.99-1.623-1.236" stroke="#2B62A4" stroke-width="3" stroke-linecap="round"/><defs><filter id="a" x="354" y="0" width="191" height="191" filterUnits="userSpaceOnUse" color-interpolation-filters="sRGB"><feFlood flood-opacity="0" result="BackgroundImageFix"/><feColorMatrix in="SourceAlpha" values="0 0 0 0 0 0 0 0 0 0 0 0 0 0 0 0 0 0 127 0" result="hardAlpha"/><feOffset dy="4"/><feGaussianBlur stdDeviation="2"/><feComposite in2="hardAlpha" operator="out"/><feColorMatrix values="0 0 0 0 0 0 0 0 0 0 0 0 0 0 0 0 0 0 0.25 0"/><feBlend in2="BackgroundImageFix" result="effect1_dropShadow_23_756"/><feBlend in="SourceGraphic" in2="effect1_dropShadow_23_756" result="shape"/></filter></defs></svg>