<svg width="1280" height="669" viewBox="0 0 1280 669" fill="none" xmlns="http://www.w3.org/2000/svg">
<path d="M-61 1C-49.4092 3.20777 -39.5769 13.7091 -30.4095 20.3988C5.73528 46.7748 44.5055 68.6699 85.6849 86.2056C193.429 132.087 312.564 167.85 430.536 170.217C494.786 171.507 553.471 166.22 612.736 140.821C632.98 132.145 659.484 125.386 671.977 105.754C700.794 60.469 627.592 14.2638 589.159 36.5148C562.834 51.7555 558.631 101.142 566.03 127.242C577.183 166.588 619.406 203.901 658.846 212.596C705.893 222.969 754.159 204.464 798.815 191.705C863.96 173.093 933.919 167.099 1001.46 174.694C1054.15 180.619 1103.91 202.472 1132.62 248.41C1161.52 294.643 1174.1 362.313 1163.07 415.836C1148.81 484.99 1088.85 516.928 1024.44 529.543C935.733 546.916 840.002 560.688 749.423 559.238C702.332 558.485 627.967 539.392 632.881 478.509C635.844 441.795 653.579 414.554 690.779 407.778C737.522 399.264 794.033 404.131 837.016 425.387C876.696 445.009 888.141 483.922 874.769 524.619C866.057 551.135 844.633 573.452 844.179 602.065C843.937 617.331 841.281 631.998 853.729 642.952C865.216 653.06 880.446 664.44 896.556 664.44C911.283 664.44 908.643 646.257 908.643 635.491C908.643 622.437 904.76 618.778 891.333 618.778C881.663 618.778 879.476 620.66 885.066 630.119C899.756 654.979 920.39 666.879 949.529 667.126C1002.07 667.571 1039.1 634.344 1075.92 600.424C1095.71 582.192 1116.82 548.942 1146.5 548.942C1178.93 548.942 1205.5 562.909 1227.83 586.546C1242.84 602.442 1248.62 634.808 1233.5 652.95C1229.44 657.82 1207.32 667.082 1201.42 660.56C1195.49 654.01 1196.14 638.874 1197.39 631.312C1203.31 595.344 1222.96 558.133 1247.08 531.036C1281.66 492.181 1322.94 470.17 1366.75 444.785C1384.27 434.633 1405.64 426.664 1421.67 414.643" stroke="#8DB8E7" stroke-width="2" stroke-linecap="round"/>
</svg>
