<svg width="173" height="56" viewBox="0 0 173 56" fill="none" xmlns="http://www.w3.org/2000/svg">
<path d="M57.6521 54.7161C49.3056 54.7161 40.9591 54.7161 32.6126 54.7161C25.8806 54.7161 17.6632 53.7308 11.5283 50.7053C4.33399 47.1575 1 42.6671 1 34.6066C1 26.3865 1.61299 20.4879 8.40877 15.2212C18.6317 7.29846 32.247 3.32159 44.9234 2.13051C55.0308 1.18083 65.4361 1.11724 75.5891 1.07211C86.6987 1.02274 97.8695 0.784668 108.956 1.57346C118.24 2.23397 127.121 4.59459 136.28 6.08557C141 6.85397 145.729 7.84308 150.401 8.87082C157.975 10.5371 164.219 13.49 168.979 19.6776C176.628 29.6213 165 39.6177 156.417 43.9093C142.197 51.0194 126.146 52.2094 110.488 52.2094C97.7652 52.2094 83.8215 50.5876 71.3555 53.2121C65.8415 54.3729 60.7909 54.7161 55.1453 54.7161" stroke="black" stroke-width="2" stroke-linecap="round"/>
<path d="M19.5546 28.0469C19.5546 30.4882 20.704 42.6417 22.688 36.1938C23.4842 33.6063 23.8025 29.307 26.3228 28.0469" stroke="black" stroke-width="2" stroke-linecap="round"/>
<path d="M35.3471 30.3027V39.327" stroke="black" stroke-width="2" stroke-linecap="round"/>
<path d="M34.9932 22.8813H35.6632" stroke="black" stroke-width="2" stroke-linecap="round"/>
<path d="M47.2772 33.3787C49.3847 33.3787 51.2974 31.577 51.2974 29.3585C51.2974 27.6879 49.7184 27.544 48.4435 27.5717C46.6519 27.6107 45.5953 29.3383 45.1554 30.9219C44.6232 32.8377 44.8862 35.2576 46.5079 36.4931C48.4469 37.9705 51.3338 37.9079 53.5308 37.1756" stroke="black" stroke-width="2" stroke-linecap="round"/>
<path d="M60.0079 28.9117C60.0079 31.0478 59.1138 36.5396 61.9063 37.3988C63.5367 37.9005 64.503 37.358 65.4799 35.9471C66.0754 35.0868 66.9011 32.2337 66.0878 31.3189C65.0224 30.1203 67.3176 34.2819 67.8746 35.7858C68.4956 37.4624 70.7863 37.3883 72.0686 36.6047C74.2295 35.2841 76.1321 28.1516 73.1853 26.6782" stroke="black" stroke-width="2" stroke-linecap="round"/>
<path d="M96.4132 27.125C96.4132 29.4329 96.4132 31.7408 96.4132 34.0487C96.4132 34.5243 96.4132 35 96.4132 35.4756C96.4132 36.7723 96.2038 32.8885 96.1899 31.5919C96.1744 30.1479 95.9267 28.1591 96.8103 26.9016C97.5944 25.7858 99.1385 24.5614 100.545 24.4572C104.054 24.1973 104.454 28.0772 104.454 30.8102C104.454 31.4802 104.454 32.1503 104.454 32.8203C104.454 33.9747 104.334 30.4919 104.553 29.3584C104.941 27.3475 106.808 25.5024 109.02 25.7973C111.234 26.0925 111.791 28.9046 111.824 30.6985C111.838 31.4875 112.11 35.4692 111.377 35.8355" stroke="black" stroke-width="2" stroke-linecap="round"/>
<path d="M122.768 26.9016C121.899 26.9016 121.084 26.7738 120.808 27.795C120.342 29.5178 120.273 31.3315 120.311 33.1057C120.331 34.0156 120.916 35.0316 121.651 35.5625C122.186 35.949 123.837 36.8354 124.505 36.4062C125.538 35.7422 126.445 33.6549 126.788 32.5349C127.123 31.4433 127.268 30.4974 127.235 29.3584C127.191 27.8618 125.367 27.125 124.108 27.125" stroke="black" stroke-width="2" stroke-linecap="round"/>
<path d="M132.372 27.3486C132.372 29.64 132.372 31.9314 132.372 34.2227C132.372 34.8145 132.548 35.7738 132.322 34.6694C132.029 33.2379 131.418 32.0137 131.826 30.5003C132.221 29.032 134.203 27.572 135.735 27.572C136.256 27.572 139.811 27.4345 139.519 28.0187" stroke="black" stroke-width="2" stroke-linecap="round"/>
<path d="M143.316 31.1455C144.465 31.1455 147.269 31.5778 147.336 29.7558C147.38 28.5701 147.329 27.6087 146.269 26.9019C145.684 26.5118 144.37 25.8679 143.713 26.4056C142.188 27.6536 142.296 30.336 143.316 31.8652C145.183 34.6661 148.115 34.719 151.133 34.719" stroke="black" stroke-width="2" stroke-linecap="round"/>
</svg>
