<svg width="73" height="141" viewBox="0 0 73 141" fill="none" xmlns="http://www.w3.org/2000/svg">
<path d="M30.4579 64.1813C25.9942 64.1813 20.6037 65.2095 17.2595 61.5886C10.9795 54.7889 9.83548 43.8893 9.83548 35.1163C9.83548 25.6469 13.2319 13.2172 21.7506 7.68885C36.4188 -1.83022 59.2828 3.48952 65.2868 20.5156C68.9267 30.8375 71.2379 43.7425 64.691 53.1284C60.6949 58.8574 55.5296 59.2781 48.9722 60.7244C45.4716 61.4965 41.764 60.9143 38.2944 61.6796C34.5863 62.4975 31.4886 63.8403 27.9832 65" stroke="black" stroke-width="3" stroke-linecap="round"/>
<path d="M29.521 65.1447C24.4317 65.1447 18.9683 74.5886 16.484 78.0395C13.1416 82.6823 11.4387 88.7492 7.85388 93.1447C4.3223 97.475 5.41743 104.58 4.08968 109.908C3.41256 112.625 -0.0836741 124 3.26339 124C9.28388 124 15.4496 121.719 21.3499 120.684C29.5756 119.242 37.8176 118.776 46.0468 117.553C51.3612 116.763 57.5697 116.539 62.9398 116.539C65.9035 116.539 70.8355 118.12 70.8355 114.329C70.8355 103.185 67.3797 93.3104 65.2351 82.5526C64.4963 78.8467 63.3261 74.4143 61.7463 70.9474C60.0705 67.2697 57.9903 62.8462 54.3097 61" stroke="black" stroke-width="3" stroke-linecap="round"/>
<path d="M29.8355 118C29.8355 123.938 29.2177 129.763 28.9893 135.576C28.7989 140.422 22.391 138.705 18.8355 138.705" stroke="black" stroke-width="3" stroke-linecap="round"/>
<path d="M44.8355 118C44.8355 123.952 44.8355 129.905 44.8355 135.857C44.8355 140.229 48.9858 138.764 52.8355 138.764" stroke="black" stroke-width="3" stroke-linecap="round"/>
<path d="M19.8563 43.9866C22.6857 43.9866 25.5151 43.9866 28.3446 43.9866C31.5032 43.9866 31.4588 44.3806 29.3274 40.898C25.7929 35.1227 19.4989 31.5869 15.8355 26" stroke="black" stroke-width="3" stroke-linecap="round"/>
<path d="M56.8759 26C55.0994 26.2342 52.6286 29.7294 51.5817 31.2016C49.7014 33.8455 46.0567 35.7669 44.8394 38.8847C44.5931 39.5154 56.0919 37.3591 57.5999 37.2145C60.3113 36.9545 63.1106 37.1668 65.8355 37.1668" stroke="black" stroke-width="3" stroke-linecap="round"/>
<path d="M32.8355 49H49.8355" stroke="black" stroke-width="3" stroke-linecap="round"/>
<path d="M35.8355 4C35.8355 8.13947 33.5656 11.1669 32.2355 14.9006C31.4044 17.2333 27.6689 17.6605 26.8355 20" stroke="black" stroke-width="3" stroke-linecap="round"/>
<path d="M36.8355 6V22" stroke="black" stroke-width="3" stroke-linecap="round"/>
<path d="M37.8355 2C38.253 6.0992 49.8137 8.70353 52.8355 12" stroke="black" stroke-width="3" stroke-linecap="round"/>
<path d="M36.8355 6C36.8355 11.8563 42.065 14.9469 46.8355 18" stroke="black" stroke-width="3" stroke-linecap="round"/>
<path d="M33.8355 5C29.9454 5 26.1243 6.54246 22.8355 8" stroke="black" stroke-width="3" stroke-linecap="round"/>
</svg>
