<svg width="235" height="41" viewBox="0 0 235 41" fill="none" xmlns="http://www.w3.org/2000/svg">
<path d="M2 19.6404C2.84811 24.305 8.47968 29.1351 10.9266 33.1317C11.4665 34.0136 14.679 41.5538 15.6942 38.2544C17.2706 33.1312 18.7176 28.0645 21.1719 23.2922C21.5538 22.5496 23.501 18.0734 24.1136 19.8433C25.7943 24.6985 25.3138 29.9668 27.9683 34.5519C33.1363 43.4784 37.605 16.8898 37.605 13.2498" stroke="black" stroke-width="3" stroke-linecap="round"/>
<path d="M55.3621 19.7366C55.2159 20.9062 53.6931 22.0179 53.3333 23.997C52.5197 28.4719 53.6835 29.1976 55.3621 32.9743C58.609 40.2799 67.7467 32.2575 69.462 28.3589C72.841 20.6793 70.8381 18.3785 63.7815 16.2877C61.035 15.4739 55.7783 15.2523 54.4491 17.9107" stroke="black" stroke-width="3" stroke-linecap="round"/>
<path d="M86.0677 20.1719C86.0677 25.1931 86.0677 30.2143 86.0677 35.2355C86.0677 41.9902 87.2906 21.7444 88.7559 15.1506C90.3127 8.14502 104.41 12.5362 107.066 16.5201" stroke="black" stroke-width="3" stroke-linecap="round"/>
<path d="M122.068 10.1294V34.779" stroke="black" stroke-width="3" stroke-linecap="round"/>
<path d="M136.675 10.1294C136.324 13.2834 132.062 16.9327 129.777 18.8024C127.978 20.2745 125.52 21.2155 124.097 23.1136C123.687 23.6594 126.838 22.8703 126.886 22.86C130.628 22.0581 134.247 21.0848 138.095 21.0848C145.412 21.0848 148.907 19.547 151.485 26.7653C153.012 31.0399 153.546 35.1794 154.934 39.3437" stroke="black" stroke-width="3" stroke-linecap="round"/>
<path d="M181.023 9.21655C177.452 9.21655 171.167 10.0956 173.922 15.6072C176.316 20.3943 185.752 19.934 187.414 25.7511C188.1 28.1542 188.474 30.4534 188.327 32.9532C188.225 34.6791 185.346 34.6091 184.218 35.2356C180.594 37.2494 173.38 35.5223 170.068 33.8662" stroke="black" stroke-width="3" stroke-linecap="round"/>
<path d="M233.178 2C232.775 5.63286 227.001 9.35905 225.165 12.2453C222.012 17.1995 219.983 22.7067 216.745 27.5626" stroke="black" stroke-width="3" stroke-linecap="round"/>
<path d="M211.268 35.7791C209.645 35.7791 208.022 35.7791 206.399 35.7791C204.747 35.7791 209.735 36.0787 211.268 36.692" stroke="black" stroke-width="3" stroke-linecap="round"/>
</svg>
