<svg width="1280" height="650" viewBox="0 0 1280 650" fill="none" xmlns="http://www.w3.org/2000/svg">
<path d="M11.6292 142.707C11.6292 142.707 174.161 382.262 377.231 287.348C580.301 192.433 820.414 115.933 985.858 92.9332C1151.3 69.9332 1415.3 142.707 1415.3 142.707L1391.47 630.657C1391.47 630.657 1153.8 320.298 935.635 287.348C717.469 254.397 627.801 339.298 387.446 544.298C147.09 749.298 -146.699 590.668 -146.699 590.668L11.6292 142.707Z" fill="#FECA1D" fill-opacity="0.5"/>
<path d="M-2.37076 54.7067C-2.37076 54.7067 160.161 294.262 363.231 199.348C566.301 104.433 806.414 27.9332 971.858 4.93319C1137.3 -18.0668 1401.3 54.7067 1401.3 54.7067L1377.47 542.657C1377.47 542.657 1139.8 232.298 921.635 199.348C703.469 166.397 613.801 251.298 373.446 456.298C133.09 661.298 -160.699 502.668 -160.699 502.668L-2.37076 54.7067Z" fill="#FECA1D" fill-opacity="0.5"/>
</svg>
